<?xml version="1.0" encoding="UTF-8"?>
<!DOCTYPE svg PUBLIC "-//W3C//DTD SVG 1.1//EN" "http://www.w3.org/Graphics/SVG/1.1/DTD/svg11.dtd">
<svg xmlns="http://www.w3.org/2000/svg" version="1.1" width="32px" height="30px" style="shape-rendering:geometricPrecision; text-rendering:geometricPrecision; image-rendering:optimizeQuality; fill-rule:evenodd; clip-rule:evenodd" xmlns:xlink="http://www.w3.org/1999/xlink">
<g><path style="opacity:1" fill="#f8f5f6" d="M 6.5,-0.5 C 9.16667,-0.5 11.8333,-0.5 14.5,-0.5C 12.58,0.0652098 10.9133,1.06521 9.5,2.5C 9.16667,2.5 8.83333,2.5 8.5,2.5C 7.44886,1.77765 6.78219,0.777652 6.5,-0.5 Z"/></g>
<g><path style="opacity:1" fill="#fcf4f9" d="M 18.5,0.5 C 18.5,0.166667 18.5,-0.166667 18.5,-0.5C 20.1667,-0.5 21.8333,-0.5 23.5,-0.5C 23.6716,0.491622 23.3382,1.15829 22.5,1.5C 21.0413,1.56745 19.7079,1.23411 18.5,0.5 Z"/></g>
<g><path style="opacity:1" fill="#f6f7f6" d="M 23.5,-0.5 C 24.1667,-0.5 24.8333,-0.5 25.5,-0.5C 25.5,0.833333 26.1667,1.5 27.5,1.5C 27.8333,2.16667 28.1667,2.83333 28.5,3.5C 28.1667,3.5 27.8333,3.5 27.5,3.5C 26.2976,4.40536 24.9643,4.40536 23.5,3.5C 23.1667,2.83333 22.8333,2.16667 22.5,1.5C 23.3382,1.15829 23.6716,0.491622 23.5,-0.5 Z"/></g>
<g><path style="opacity:1" fill="#f5f8f0" d="M 25.5,-0.5 C 27.5,-0.5 29.5,-0.5 31.5,-0.5C 31.5,0.5 31.5,1.5 31.5,2.5C 30.8444,1.72225 30.0111,1.05558 29,0.5C 28.2352,0.569925 27.7352,0.903259 27.5,1.5C 26.1667,1.5 25.5,0.833333 25.5,-0.5 Z"/></g>
<g><path style="opacity:1" fill="#f7f5f8" d="M 0.5,0.5 C 1.5,0.5 2.5,0.5 3.5,0.5C 3.84316,2.48324 3.17649,3.81658 1.5,4.5C 0.565525,3.43236 0.232191,2.09903 0.5,0.5 Z"/></g>
<g><path style="opacity:1" fill="#f7f8f2" d="M 0.5,0.5 C 0.5,0.166667 0.5,-0.166667 0.5,-0.5C 2.5,-0.5 4.5,-0.5 6.5,-0.5C 6.78219,0.777652 7.44886,1.77765 8.5,2.5C 6.93819,2.73286 5.60486,3.39952 4.5,4.5C 4.76781,2.90097 4.43448,1.56764 3.5,0.5C 2.5,0.5 1.5,0.5 0.5,0.5 Z"/></g>
<g><path style="opacity:1" fill="#f6f8f2" d="M 14.5,-0.5 C 15.8333,-0.5 17.1667,-0.5 18.5,-0.5C 18.5,-0.166667 18.5,0.166667 18.5,0.5C 17.1667,0.5 16.5,1.16667 16.5,2.5C 14.5,2.5 12.5,2.5 10.5,2.5C 10.1667,2.5 9.83333,2.5 9.5,2.5C 10.9133,1.06521 12.58,0.0652098 14.5,-0.5 Z"/></g>
<g><path style="opacity:1" fill="#f4f5e6" d="M 18.5,0.5 C 19.7079,1.23411 21.0413,1.56745 22.5,1.5C 22.8333,2.16667 23.1667,2.83333 23.5,3.5C 22.8333,4.16667 22.1667,4.83333 21.5,5.5C 21.5,5.83333 21.5,6.16667 21.5,6.5C 20.8333,6.5 20.1667,6.5 19.5,6.5C 17.7354,5.53862 15.7354,5.20528 13.5,5.5C 13.5,5.16667 13.5,4.83333 13.5,4.5C 15.924,4.80756 18.2573,4.47423 20.5,3.5C 19.3112,2.57131 17.9778,2.23798 16.5,2.5C 16.5,1.16667 17.1667,0.5 18.5,0.5 Z"/></g>
<g><path style="opacity:1" fill="#f6f6ee" d="M 8.5,2.5 C 8.83333,2.5 9.16667,2.5 9.5,2.5C 9.83333,2.5 10.1667,2.5 10.5,2.5C 10.8212,4.04814 11.8212,4.71481 13.5,4.5C 13.5,4.83333 13.5,5.16667 13.5,5.5C 12.0413,5.43255 10.7079,5.76589 9.5,6.5C 9.52992,5.50278 9.02992,4.83611 8,4.5C 6.62688,5.51518 5.46021,5.51518 4.5,4.5C 5.60486,3.39952 6.93819,2.73286 8.5,2.5 Z"/></g>
<g><path style="opacity:1" fill="#f8f6f7" d="M 10.5,2.5 C 12.5,2.5 14.5,2.5 16.5,2.5C 17.9778,2.23798 19.3112,2.57131 20.5,3.5C 18.2573,4.47423 15.924,4.80756 13.5,4.5C 11.8212,4.71481 10.8212,4.04814 10.5,2.5 Z"/></g>
<g><path style="opacity:1" fill="#f7f4f9" d="M 31.5,2.5 C 31.5,3.16667 31.5,3.83333 31.5,4.5C 30.609,3.89022 29.609,3.55688 28.5,3.5C 28.1667,2.83333 27.8333,2.16667 27.5,1.5C 27.7352,0.903259 28.2352,0.569925 29,0.5C 30.0111,1.05558 30.8444,1.72225 31.5,2.5 Z"/></g>
<g><path style="opacity:1" fill="#f6f8f3" d="M 23.5,3.5 C 24.9643,4.40536 26.2976,4.40536 27.5,3.5C 27.8333,4.16667 28.1667,4.83333 28.5,5.5C 27.8333,5.5 27.1667,5.5 26.5,5.5C 24.8333,5.5 23.1667,5.5 21.5,5.5C 22.1667,4.83333 22.8333,4.16667 23.5,3.5 Z"/></g>
<g><path style="opacity:1" fill="#f6f9ef" d="M -0.5,-0.5 C -0.166667,-0.5 0.166667,-0.5 0.5,-0.5C 0.5,-0.166667 0.5,0.166667 0.5,0.5C 0.232191,2.09903 0.565525,3.43236 1.5,4.5C 1.82124,6.04814 2.82124,6.71481 4.5,6.5C 4.71481,8.17876 4.04814,9.17876 2.5,9.5C 2.17876,7.95186 1.17876,7.28519 -0.5,7.5C -0.5,4.83333 -0.5,2.16667 -0.5,-0.5 Z"/></g>
<g><path style="opacity:1" fill="#f7f6f4" d="M 3.5,0.5 C 4.43448,1.56764 4.76781,2.90097 4.5,4.5C 5.46021,5.51518 6.62688,5.51518 8,4.5C 9.02992,4.83611 9.52992,5.50278 9.5,6.5C 8.5,6.83333 7.83333,7.5 7.5,8.5C 6.72813,9.69354 5.72813,10.6935 4.5,11.5C 3.83333,10.8333 3.16667,10.1667 2.5,9.5C 4.04814,9.17876 4.71481,8.17876 4.5,6.5C 2.82124,6.71481 1.82124,6.04814 1.5,4.5C 3.17649,3.81658 3.84316,2.48324 3.5,0.5 Z"/></g>
<g><path style="opacity:1" fill="#f4f8ef" d="M 27.5,3.5 C 27.8333,3.5 28.1667,3.5 28.5,3.5C 29.609,3.55688 30.609,3.89022 31.5,4.5C 31.5,5.5 31.5,6.5 31.5,7.5C 30.5,6.83333 29.5,6.16667 28.5,5.5C 28.1667,4.83333 27.8333,4.16667 27.5,3.5 Z"/></g>
<g><path style="opacity:1" fill="#f9f6f0" d="M 21.5,5.5 C 23.1667,5.5 24.8333,5.5 26.5,5.5C 25.4489,6.22235 24.7822,7.22235 24.5,8.5C 23.2905,8.06795 22.2905,7.40128 21.5,6.5C 21.5,6.16667 21.5,5.83333 21.5,5.5 Z"/></g>
<g><path style="opacity:1" fill="#c7a24a" d="M 19.5,6.5 C 19.8333,7.16667 20.1667,7.83333 20.5,8.5C 17.6476,8.01703 14.9809,8.01703 12.5,8.5C 11.8333,8.5 11.1667,8.5 10.5,8.5C 10.6107,7.88258 10.944,7.38258 11.5,7C 14.146,6.50258 16.8127,6.33591 19.5,6.5 Z"/></g>
<g><path style="opacity:1" fill="#f7f7f3" d="M -0.5,7.5 C 1.17876,7.28519 2.17876,7.95186 2.5,9.5C 2.16667,9.5 1.83333,9.5 1.5,9.5C 0.833333,9.83333 0.166667,10.1667 -0.5,10.5C -0.5,9.5 -0.5,8.5 -0.5,7.5 Z"/></g>
<g><path style="opacity:1" fill="#e7cd8b" d="M 19.5,6.5 C 20.1667,6.5 20.8333,6.5 21.5,6.5C 22.2905,7.40128 23.2905,8.06795 24.5,8.5C 24.5,8.83333 24.5,9.16667 24.5,9.5C 24.8333,10.1667 25.1667,10.8333 25.5,11.5C 25.8064,14.3854 25.4731,17.0521 24.5,19.5C 24.5,18.8333 24.5,18.1667 24.5,17.5C 24.5,17.1667 24.5,16.8333 24.5,16.5C 24.7406,14.1016 24.0739,12.1016 22.5,10.5C 22.5,9.16667 21.8333,8.5 20.5,8.5C 20.1667,7.83333 19.8333,7.16667 19.5,6.5 Z"/></g>
<g><path style="opacity:1" fill="#f7f6f9" d="M 26.5,5.5 C 27.1667,5.5 27.8333,5.5 28.5,5.5C 29.5,6.16667 30.5,6.83333 31.5,7.5C 31.5,9.5 31.5,11.5 31.5,13.5C 30.6618,13.1583 30.3284,12.4916 30.5,11.5C 30.573,9.97306 29.9063,8.97306 28.5,8.5C 28.44,7.95691 28.1067,7.62358 27.5,7.5C 26.7348,8.61191 25.7348,9.27858 24.5,9.5C 24.5,9.16667 24.5,8.83333 24.5,8.5C 24.7822,7.22235 25.4489,6.22235 26.5,5.5 Z"/></g>
<g><path style="opacity:1" fill="#edd798" d="M 13.5,5.5 C 15.7354,5.20528 17.7354,5.53862 19.5,6.5C 16.8127,6.33591 14.146,6.50258 11.5,7C 10.944,7.38258 10.6107,7.88258 10.5,8.5C 9.16667,8.5 8.5,9.16667 8.5,10.5C 8.16667,10.5 7.83333,10.5 7.5,10.5C 7.5,9.83333 7.5,9.16667 7.5,8.5C 7.83333,7.5 8.5,6.83333 9.5,6.5C 10.7079,5.76589 12.0413,5.43255 13.5,5.5 Z"/></g>
<g><path style="opacity:1" fill="#edbe6b" d="M 20.5,8.5 C 20.1667,9.16667 19.8333,9.83333 19.5,10.5C 19.1667,10.5 18.8333,10.5 18.5,10.5C 16.7354,9.53862 14.7354,9.20528 12.5,9.5C 12.5,9.16667 12.5,8.83333 12.5,8.5C 14.9809,8.01703 17.6476,8.01703 20.5,8.5 Z"/></g>
<g><path style="opacity:1" fill="#f6f7ed" d="M 28.5,8.5 C 29.9063,8.97306 30.573,9.97306 30.5,11.5C 29.8333,12.5 29.1667,13.5 28.5,14.5C 28.5,13.5 28.5,12.5 28.5,11.5C 27.8843,10.2022 27.8843,9.20222 28.5,8.5 Z"/></g>
<g><path style="opacity:1" fill="#c19746" d="M 20.5,8.5 C 21.8333,8.5 22.5,9.16667 22.5,10.5C 21.8333,10.8333 21.1667,11.1667 20.5,11.5C 19.8333,11.5 19.5,11.1667 19.5,10.5C 19.8333,9.83333 20.1667,9.16667 20.5,8.5 Z"/></g>
<g><path style="opacity:1" fill="#f9f7f3" d="M 28.5,8.5 C 27.8843,9.20222 27.8843,10.2022 28.5,11.5C 27.6043,10.4937 26.9377,10.4937 26.5,11.5C 26.1667,11.5 25.8333,11.5 25.5,11.5C 25.1667,10.8333 24.8333,10.1667 24.5,9.5C 25.7348,9.27858 26.7348,8.61191 27.5,7.5C 28.1067,7.62358 28.44,7.95691 28.5,8.5 Z"/></g>
<g><path style="opacity:1" fill="#fbf3f5" d="M 1.5,9.5 C 1.5,10.1667 1.5,10.8333 1.5,11.5C 1.06795,12.7095 0.40128,13.7095 -0.5,14.5C -0.5,13.1667 -0.5,11.8333 -0.5,10.5C 0.166667,10.1667 0.833333,9.83333 1.5,9.5 Z"/></g>
<g><path style="opacity:1" fill="#e4b865" d="M 10.5,8.5 C 11.1667,8.5 11.8333,8.5 12.5,8.5C 12.5,8.83333 12.5,9.16667 12.5,9.5C 12.5,9.83333 12.5,10.1667 12.5,10.5C 11.5,10.8333 10.8333,11.5 10.5,12.5C 10.1667,12.5 9.83333,12.5 9.5,12.5C 9.67158,11.5084 9.33825,10.8417 8.5,10.5C 8.5,9.16667 9.16667,8.5 10.5,8.5 Z"/></g>
<g><path style="opacity:1" fill="#d1a347" d="M 12.5,9.5 C 14.7354,9.20528 16.7354,9.53862 18.5,10.5C 17.0256,11.4363 16.0256,12.7697 15.5,14.5C 15.1667,14.5 14.8333,14.5 14.5,14.5C 14.2671,12.9382 13.6005,11.6049 12.5,10.5C 12.5,10.1667 12.5,9.83333 12.5,9.5 Z"/></g>
<g><path style="opacity:1" fill="#d7ab56" d="M 12.5,10.5 C 13.6005,11.6049 14.2671,12.9382 14.5,14.5C 14.5,15.1667 14.5,15.8333 14.5,16.5C 13.8333,16.8333 13.1667,17.1667 12.5,17.5C 12.5,16.8333 12.5,16.1667 12.5,15.5C 12.7148,13.8212 12.0481,12.8212 10.5,12.5C 10.8333,11.5 11.5,10.8333 12.5,10.5 Z"/></g>
<g><path style="opacity:1" fill="#ab843e" d="M 18.5,10.5 C 18.8333,10.5 19.1667,10.5 19.5,10.5C 19.5,11.1667 19.8333,11.5 20.5,11.5C 20.5,11.8333 20.5,12.1667 20.5,12.5C 19.7659,13.7079 19.4326,15.0413 19.5,16.5C 18.7321,15.7375 18.2321,14.7375 18,13.5C 17.3292,14.2524 16.4959,14.5858 15.5,14.5C 16.0256,12.7697 17.0256,11.4363 18.5,10.5 Z"/></g>
<g><path style="opacity:1" fill="#f7f6f9" d="M 1.5,9.5 C 1.83333,9.5 2.16667,9.5 2.5,9.5C 3.16667,10.1667 3.83333,10.8333 4.5,11.5C 4.5,13.8333 4.5,16.1667 4.5,18.5C 3.16667,18.5 2.5,17.8333 2.5,16.5C 4.02337,14.4143 3.69003,12.7476 1.5,11.5C 1.5,10.8333 1.5,10.1667 1.5,9.5 Z"/></g>
<g><path style="opacity:1" fill="#dcb554" d="M 9.5,12.5 C 9.83333,12.5 10.1667,12.5 10.5,12.5C 12.0481,12.8212 12.7148,13.8212 12.5,15.5C 11.391,15.4431 10.391,15.1098 9.5,14.5C 9.5,13.8333 9.5,13.1667 9.5,12.5 Z"/></g>
<g><path style="opacity:1" fill="#f7f7f6" d="M 30.5,11.5 C 30.3284,12.4916 30.6618,13.1583 31.5,13.5C 31.5,15.5 31.5,17.5 31.5,19.5C 30.8999,18.0998 29.8999,17.0998 28.5,16.5C 28.5,15.8333 28.5,15.1667 28.5,14.5C 29.1667,13.5 29.8333,12.5 30.5,11.5 Z"/></g>
<g><path style="opacity:1" fill="#f7e9ca" d="M 7.5,8.5 C 7.5,9.16667 7.5,9.83333 7.5,10.5C 7.16667,11.1667 6.83333,11.8333 6.5,12.5C 5.34333,15.0259 5.34333,17.6926 6.5,20.5C 5.50838,20.6716 4.84171,20.3382 4.5,19.5C 4.5,19.1667 4.5,18.8333 4.5,18.5C 4.5,16.1667 4.5,13.8333 4.5,11.5C 5.72813,10.6935 6.72813,9.69354 7.5,8.5 Z"/></g>
<g><path style="opacity:1" fill="#ad8026" d="M 22.5,10.5 C 24.0739,12.1016 24.7406,14.1016 24.5,16.5C 23.8333,15.5 23.1667,14.5 22.5,13.5C 22.5,12.5 22.5,11.5 22.5,10.5 Z"/></g>
<g><path style="opacity:1" fill="#f4f8f8" d="M 28.5,11.5 C 28.5,12.5 28.5,13.5 28.5,14.5C 28.5,15.1667 28.5,15.8333 28.5,16.5C 28.5,17.5 28.5,18.5 28.5,19.5C 27.8333,19.5 27.1667,19.5 26.5,19.5C 26.5,16.8333 26.5,14.1667 26.5,11.5C 26.9377,10.4937 27.6043,10.4937 28.5,11.5 Z"/></g>
<g><path style="opacity:1" fill="#f3f8f1" d="M 1.5,11.5 C 3.69003,12.7476 4.02337,14.4143 2.5,16.5C 1.88258,16.6107 1.38258,16.944 1,17.5C 0.721579,16.5842 0.221579,15.9175 -0.5,15.5C -0.5,15.1667 -0.5,14.8333 -0.5,14.5C 0.40128,13.7095 1.06795,12.7095 1.5,11.5 Z"/></g>
<g><path style="opacity:1" fill="#9c722b" d="M 19.5,16.5 C 20.1667,16.5 20.5,16.8333 20.5,17.5C 20.1667,18.1667 19.8333,18.8333 19.5,19.5C 18.8333,19.8333 18.1667,20.1667 17.5,20.5C 16.0474,19.1751 16.3808,18.3418 18.5,18C 16.9419,17.79 15.6085,17.29 14.5,16.5C 14.5,15.8333 14.5,15.1667 14.5,14.5C 14.8333,14.5 15.1667,14.5 15.5,14.5C 16.4959,14.5858 17.3292,14.2524 18,13.5C 18.2321,14.7375 18.7321,15.7375 19.5,16.5 Z"/></g>
<g><path style="opacity:1" fill="#f0bc6d" d="M 8.5,10.5 C 9.33825,10.8417 9.67158,11.5084 9.5,12.5C 9.5,13.1667 9.5,13.8333 9.5,14.5C 9.5,15.5 9.5,16.5 9.5,17.5C 8.83333,17.5 8.16667,17.5 7.5,17.5C 7.67412,15.139 8.00745,12.8056 8.5,10.5 Z"/></g>
<g><path style="opacity:1" fill="#9e6c34" d="M 20.5,12.5 C 21.4511,13.9187 21.7845,15.5853 21.5,17.5C 21.1667,17.5 20.8333,17.5 20.5,17.5C 20.5,16.8333 20.1667,16.5 19.5,16.5C 19.4326,15.0413 19.7659,13.7079 20.5,12.5 Z"/></g>
<g><path style="opacity:1" fill="#caa149" d="M 7.5,10.5 C 7.83333,10.5 8.16667,10.5 8.5,10.5C 8.00745,12.8056 7.67412,15.139 7.5,17.5C 6.54885,16.0813 6.21552,14.4147 6.5,12.5C 6.83333,11.8333 7.16667,11.1667 7.5,10.5 Z"/></g>
<g><path style="opacity:1" fill="#d8ad51" d="M 9.5,14.5 C 10.391,15.1098 11.391,15.4431 12.5,15.5C 12.5,16.1667 12.5,16.8333 12.5,17.5C 11.8333,17.5 11.5,17.8333 11.5,18.5C 10.8333,18.1667 10.1667,17.8333 9.5,17.5C 9.5,16.5 9.5,15.5 9.5,14.5 Z"/></g>
<g><path style="opacity:1" fill="#b9892e" d="M 22.5,13.5 C 23.1667,14.5 23.8333,15.5 24.5,16.5C 24.5,16.8333 24.5,17.1667 24.5,17.5C 23.8333,18.1667 23.1667,18.8333 22.5,19.5C 22.5,17.5 22.5,15.5 22.5,13.5 Z"/></g>
<g><path style="opacity:1" fill="#f4f9f7" d="M -0.5,15.5 C 0.221579,15.9175 0.721579,16.5842 1,17.5C 1.38258,16.944 1.88258,16.6107 2.5,16.5C 2.5,17.8333 3.16667,18.5 4.5,18.5C 4.5,18.8333 4.5,19.1667 4.5,19.5C 2.83333,19.5 1.16667,19.5 -0.5,19.5C -0.5,18.1667 -0.5,16.8333 -0.5,15.5 Z"/></g>
<g><path style="opacity:1" fill="#d2a05f" d="M 22.5,10.5 C 22.5,11.5 22.5,12.5 22.5,13.5C 22.5,15.5 22.5,17.5 22.5,19.5C 21.6618,19.1583 21.3284,18.4916 21.5,17.5C 21.7845,15.5853 21.4511,13.9187 20.5,12.5C 20.5,12.1667 20.5,11.8333 20.5,11.5C 21.1667,11.1667 21.8333,10.8333 22.5,10.5 Z"/></g>
<g><path style="opacity:1" fill="#deb055" d="M 7.5,17.5 C 8.16667,17.5 8.83333,17.5 9.5,17.5C 10.1667,17.8333 10.8333,18.1667 11.5,18.5C 10.7659,19.7079 10.4326,21.0413 10.5,22.5C 9.83333,22.5 9.16667,22.5 8.5,22.5C 8.37133,20.7839 8.038,19.1172 7.5,17.5 Z"/></g>
<g><path style="opacity:1" fill="#926728" d="M 14.5,16.5 C 15.6085,17.29 16.9419,17.79 18.5,18C 16.3808,18.3418 16.0474,19.1751 17.5,20.5C 16.8333,20.5 16.1667,20.5 15.5,20.5C 14.5,20.5 13.5,20.5 12.5,20.5C 12.5,19.5 12.5,18.5 12.5,17.5C 13.1667,17.1667 13.8333,16.8333 14.5,16.5 Z"/></g>
<g><path style="opacity:1" fill="#b98b3b" d="M 20.5,17.5 C 20.8333,17.5 21.1667,17.5 21.5,17.5C 21.3284,18.4916 21.6618,19.1583 22.5,19.5C 22.1667,20.5 21.5,21.1667 20.5,21.5C 20.1667,20.8333 19.8333,20.1667 19.5,19.5C 19.8333,18.8333 20.1667,18.1667 20.5,17.5 Z"/></g>
<g><path style="opacity:1" fill="#f6f7ef" d="M -0.5,19.5 C 1.16667,19.5 2.83333,19.5 4.5,19.5C 4.84171,20.3382 5.50838,20.6716 6.5,20.5C 6.5,20.8333 6.5,21.1667 6.5,21.5C 5.16667,21.5 3.83333,21.5 2.5,21.5C 0.403086,22.8786 0.0697524,24.5453 1.5,26.5C 1.44312,27.609 1.10978,28.609 0.5,29.5C 0.166667,29.5 -0.166667,29.5 -0.5,29.5C -0.5,26.1667 -0.5,22.8333 -0.5,19.5 Z"/></g>
<g><path style="opacity:1" fill="#e1c580" d="M 6.5,12.5 C 6.21552,14.4147 6.54885,16.0813 7.5,17.5C 8.038,19.1172 8.37133,20.7839 8.5,22.5C 8.16667,22.5 7.83333,22.5 7.5,22.5C 7.5,21.8333 7.16667,21.5 6.5,21.5C 6.5,21.1667 6.5,20.8333 6.5,20.5C 5.34333,17.6926 5.34333,15.0259 6.5,12.5 Z"/></g>
<g><path style="opacity:1" fill="#c29545" d="M 12.5,17.5 C 12.5,18.5 12.5,19.5 12.5,20.5C 13.5,20.5 14.5,20.5 15.5,20.5C 15.3691,21.3764 15.7025,22.0431 16.5,22.5C 17.7362,21.7542 19.0695,21.4208 20.5,21.5C 20.5,21.8333 20.5,22.1667 20.5,22.5C 18.5,22.5 17.5,23.5 17.5,25.5C 16.1667,25.5 14.8333,25.5 13.5,25.5C 13.1436,23.8102 12.1436,22.8102 10.5,22.5C 10.4326,21.0413 10.7659,19.7079 11.5,18.5C 11.5,17.8333 11.8333,17.5 12.5,17.5 Z"/></g>
<g><path style="opacity:1" fill="#cc9a57" d="M 19.5,19.5 C 19.8333,20.1667 20.1667,20.8333 20.5,21.5C 19.0695,21.4208 17.7362,21.7542 16.5,22.5C 15.7025,22.0431 15.3691,21.3764 15.5,20.5C 16.1667,20.5 16.8333,20.5 17.5,20.5C 18.1667,20.1667 18.8333,19.8333 19.5,19.5 Z"/></g>
<g><path style="opacity:1" fill="#d3b062" d="M 24.5,17.5 C 24.5,18.1667 24.5,18.8333 24.5,19.5C 24.5,20.1667 24.5,20.8333 24.5,21.5C 23.8333,21.8333 23.1667,22.1667 22.5,22.5C 21.8333,22.5 21.1667,22.5 20.5,22.5C 20.5,22.1667 20.5,21.8333 20.5,21.5C 21.5,21.1667 22.1667,20.5 22.5,19.5C 23.1667,18.8333 23.8333,18.1667 24.5,17.5 Z"/></g>
<g><path style="opacity:1" fill="#f7ecd7" d="M 25.5,11.5 C 25.8333,11.5 26.1667,11.5 26.5,11.5C 26.5,14.1667 26.5,16.8333 26.5,19.5C 26.1667,20.1667 25.8333,20.8333 25.5,21.5C 25.1667,21.5 24.8333,21.5 24.5,21.5C 24.5,20.8333 24.5,20.1667 24.5,19.5C 25.4731,17.0521 25.8064,14.3854 25.5,11.5 Z"/></g>
<g><path style="opacity:1" fill="#f7f9ee" d="M 28.5,16.5 C 29.8999,17.0998 30.8999,18.0998 31.5,19.5C 31.5,20.5 31.5,21.5 31.5,22.5C 30.5,21.5 29.5,20.5 28.5,19.5C 28.5,18.5 28.5,17.5 28.5,16.5 Z"/></g>
<g><path style="opacity:1" fill="#f6f6f7" d="M 2.5,21.5 C 3.83333,21.5 5.16667,21.5 6.5,21.5C 7.16667,21.5 7.5,21.8333 7.5,22.5C 7.5,23.1667 7.5,23.8333 7.5,24.5C 7.67158,25.4916 7.33825,26.1583 6.5,26.5C 5.59603,25.791 5.26269,24.791 5.5,23.5C 4.5,22.8333 3.5,22.1667 2.5,21.5 Z"/></g>
<g><path style="opacity:1" fill="#f5f5f2" d="M 26.5,19.5 C 27.1667,19.5 27.8333,19.5 28.5,19.5C 29.5,20.5 30.5,21.5 31.5,22.5C 31.5,23.5 31.5,24.5 31.5,25.5C 30.3332,23.9586 28.9999,22.6252 27.5,21.5C 26.8333,21.5 26.1667,21.5 25.5,21.5C 25.8333,20.8333 26.1667,20.1667 26.5,19.5 Z"/></g>
<g><path style="opacity:1" fill="#f5f7f8" d="M 2.5,21.5 C 3.5,22.1667 4.5,22.8333 5.5,23.5C 4.39105,23.5569 3.39105,23.8902 2.5,24.5C 1.57982,23.9326 1.24649,24.5992 1.5,26.5C 0.0697524,24.5453 0.403086,22.8786 2.5,21.5 Z"/></g>
<g><path style="opacity:1" fill="#ceab73" d="M 8.5,22.5 C 9.16667,22.5 9.83333,22.5 10.5,22.5C 12.1436,22.8102 13.1436,23.8102 13.5,25.5C 12.391,25.4431 11.391,25.1098 10.5,24.5C 9.5,24.1667 8.83333,23.5 8.5,22.5 Z"/></g>
<g><path style="opacity:1" fill="#caa769" d="M 20.5,22.5 C 21.1667,22.5 21.8333,22.5 22.5,22.5C 22.1667,23.1667 21.8333,23.8333 21.5,24.5C 20.5084,24.3284 19.8417,24.6618 19.5,25.5C 18.8333,25.5 18.1667,25.5 17.5,25.5C 17.5,23.5 18.5,22.5 20.5,22.5 Z"/></g>
<g><path style="opacity:1" fill="#f6f5fb" d="M 24.5,21.5 C 24.8333,21.5 25.1667,21.5 25.5,21.5C 26.1667,21.5 26.8333,21.5 27.5,21.5C 27.5,22.5 27.5,23.5 27.5,24.5C 26.1266,24.6567 24.7932,24.49 23.5,24C 24.2524,23.3292 24.5858,22.4959 24.5,21.5 Z"/></g>
<g><path style="opacity:1" fill="#f6f8f6" d="M 27.5,21.5 C 28.9999,22.6252 30.3332,23.9586 31.5,25.5C 31.5,26.1667 31.5,26.8333 31.5,27.5C 30.5416,27.0472 29.7083,26.3805 29,25.5C 28.5357,26.0944 28.369,26.7611 28.5,27.5C 28.1667,27.5 27.8333,27.5 27.5,27.5C 27.5,26.5 27.5,25.5 27.5,24.5C 27.5,23.5 27.5,22.5 27.5,21.5 Z"/></g>
<g><path style="opacity:1" fill="#f4f4e7" d="M 7.5,22.5 C 7.83333,22.5 8.16667,22.5 8.5,22.5C 8.83333,23.5 9.5,24.1667 10.5,24.5C 10.5,24.8333 10.5,25.1667 10.5,25.5C 9.59603,26.209 9.26269,27.209 9.5,28.5C 8.83333,27.1667 8.16667,25.8333 7.5,24.5C 7.5,23.8333 7.5,23.1667 7.5,22.5 Z"/></g>
<g><path style="opacity:1" fill="#fbf4e4" d="M 10.5,24.5 C 11.391,25.1098 12.391,25.4431 13.5,25.5C 14.8333,25.5 16.1667,25.5 17.5,25.5C 18.1667,25.5 18.8333,25.5 19.5,25.5C 19.5,25.8333 19.5,26.1667 19.5,26.5C 17.8333,26.5 16.1667,26.5 14.5,26.5C 12.901,26.7678 11.5676,26.4345 10.5,25.5C 10.5,25.1667 10.5,24.8333 10.5,24.5 Z"/></g>
<g><path style="opacity:1" fill="#f5f7ed" d="M 21.5,24.5 C 21.8333,25.5 22.5,26.1667 23.5,26.5C 23.1788,28.0481 22.1788,28.7148 20.5,28.5C 20.6716,27.5084 20.3382,26.8417 19.5,26.5C 19.5,26.1667 19.5,25.8333 19.5,25.5C 19.8417,24.6618 20.5084,24.3284 21.5,24.5 Z"/></g>
<g><path style="opacity:1" fill="#f8f4ef" d="M 24.5,21.5 C 24.5858,22.4959 24.2524,23.3292 23.5,24C 24.7932,24.49 26.1266,24.6567 27.5,24.5C 27.5,25.5 27.5,26.5 27.5,27.5C 26.8333,27.5 26.1667,27.5 25.5,27.5C 25.5912,25.3023 24.9245,24.9689 23.5,26.5C 22.5,26.1667 21.8333,25.5 21.5,24.5C 21.8333,23.8333 22.1667,23.1667 22.5,22.5C 23.1667,22.1667 23.8333,21.8333 24.5,21.5 Z"/></g>
<g><path style="opacity:1" fill="#f5f5fa" d="M 31.5,27.5 C 31.5,28.1667 31.5,28.8333 31.5,29.5C 30.8333,29.5 30.1667,29.5 29.5,29.5C 29.1667,28.8333 28.8333,28.1667 28.5,27.5C 28.369,26.7611 28.5357,26.0944 29,25.5C 29.7083,26.3805 30.5416,27.0472 31.5,27.5 Z"/></g>
<g><path style="opacity:1" fill="#faf6f2" d="M 5.5,23.5 C 5.26269,24.791 5.59603,25.791 6.5,26.5C 6.16667,27.1667 5.83333,27.8333 5.5,28.5C 3.46765,27.9522 2.46765,26.6188 2.5,24.5C 3.39105,23.8902 4.39105,23.5569 5.5,23.5 Z"/></g>
<g><path style="opacity:1" fill="#f2f5fb" d="M 14.5,26.5 C 16.1667,26.5 17.8333,26.5 19.5,26.5C 20.3382,26.8417 20.6716,27.5084 20.5,28.5C 20.1667,28.5 19.8333,28.5 19.5,28.5C 17.4727,28.6621 15.4727,28.4955 13.5,28C 14.056,27.6174 14.3893,27.1174 14.5,26.5 Z"/></g>
<g><path style="opacity:1" fill="#f4f8f3" d="M 7.5,24.5 C 8.16667,25.8333 8.83333,27.1667 9.5,28.5C 9.5,28.8333 9.5,29.1667 9.5,29.5C 8.16667,29.5 6.83333,29.5 5.5,29.5C 5.5,29.1667 5.5,28.8333 5.5,28.5C 5.83333,27.8333 6.16667,27.1667 6.5,26.5C 7.33825,26.1583 7.67158,25.4916 7.5,24.5 Z"/></g>
<g><path style="opacity:1" fill="#f5f8f5" d="M 10.5,25.5 C 11.5676,26.4345 12.901,26.7678 14.5,26.5C 14.3893,27.1174 14.056,27.6174 13.5,28C 15.4727,28.4955 17.4727,28.6621 19.5,28.5C 19.5,28.8333 19.5,29.1667 19.5,29.5C 16.1667,29.5 12.8333,29.5 9.5,29.5C 9.5,29.1667 9.5,28.8333 9.5,28.5C 9.26269,27.209 9.59603,26.209 10.5,25.5 Z"/></g>
<g><path style="opacity:1" fill="#f6f6f9" d="M 2.5,24.5 C 2.46765,26.6188 3.46765,27.9522 5.5,28.5C 5.5,28.8333 5.5,29.1667 5.5,29.5C 3.83333,29.5 2.16667,29.5 0.5,29.5C 1.10978,28.609 1.44312,27.609 1.5,26.5C 1.24649,24.5992 1.57982,23.9326 2.5,24.5 Z"/></g>
<g><path style="opacity:1" fill="#f7f7f6" d="M 25.5,27.5 C 25.1667,28.1667 24.8333,28.8333 24.5,29.5C 22.8333,29.5 21.1667,29.5 19.5,29.5C 19.5,29.1667 19.5,28.8333 19.5,28.5C 19.8333,28.5 20.1667,28.5 20.5,28.5C 22.1788,28.7148 23.1788,28.0481 23.5,26.5C 24.9245,24.9689 25.5912,25.3023 25.5,27.5 Z"/></g>
<g><path style="opacity:1" fill="#f0f5ef" d="M 25.5,27.5 C 26.1667,27.5 26.8333,27.5 27.5,27.5C 27.8333,27.5 28.1667,27.5 28.5,27.5C 28.8333,28.1667 29.1667,28.8333 29.5,29.5C 27.8333,29.5 26.1667,29.5 24.5,29.5C 24.8333,28.8333 25.1667,28.1667 25.5,27.5 Z"/></g>
</svg>
