<?xml version="1.0" standalone="no"?>
<!DOCTYPE svg PUBLIC "-//W3C//DTD SVG 20010904//EN"
 "http://www.w3.org/TR/2001/REC-SVG-20010904/DTD/svg10.dtd">
<svg version="1.0" xmlns="http://www.w3.org/2000/svg"
 width="32.000000pt" height="30.000000pt" viewBox="0 0 32.000000 30.000000"
 preserveAspectRatio="xMidYMid meet">

<g transform="translate(0.000000,30.000000) scale(0.100000,-0.100000)"
fill="#000000" stroke="none">
<path d="M185 187 c-10 -8 -15 -19 -11 -25 4 -7 1 -12 -6 -12 -9 0 -9 -3 2
-10 15 -9 11 -12 -20 -14 -8 -1 -16 -9 -18 -19 -3 -15 3 -18 37 -16 22 2 38 6
35 10 -2 4 0 10 6 14 5 3 10 17 10 31 0 31 -20 22 -21 -9 -1 -20 -2 -20 -8 3
-4 16 -2 30 6 38 23 24 16 29 -12 9z"/>
</g>
</svg>
